<?xml version="1.0" encoding="utf-8"?>
<!-- Generator: Adobe Illustrator 19.0.1, SVG Export Plug-In . SVG Version: 6.00 Build 0)  -->
<svg version="1.1" id="Layer_1" xmlns="http://www.w3.org/2000/svg" xmlns:xlink="http://www.w3.org/1999/xlink" x="0px" y="0px"
	 viewBox="0 0 280 115" enable-background="new 0 0 280 115" xml:space="preserve">
<rect x="65" y="30" fill="#5E778A" stroke="#FFFFFF" stroke-miterlimit="10" width="20" height="20"/>
<rect x="95.2" y="30" fill="#5E778A" stroke="#FFFFFF" stroke-miterlimit="10" width="20" height="20"/>
<rect x="125" y="30" fill="#5E778A" stroke="#FFFFFF" stroke-miterlimit="10" width="20" height="20"/>
<rect x="65" y="70" fill="#5E778A" stroke="#FFFFFF" stroke-miterlimit="10" width="20" height="20"/>
<rect x="95.2" y="70" fill="#5E778A" stroke="#FFFFFF" stroke-miterlimit="10" width="20" height="20"/>
<rect x="125" y="70" fill="#5E778A" stroke="#FFFFFF" stroke-miterlimit="10" width="20" height="20"/>
<g>
	<g>
		<line fill="none" stroke="#F26F2A" stroke-miterlimit="10" x1="104.5" y1="54" x2="104.5" y2="66"/>
		<g>
			<polygon fill="#F26F2A" points="102.2,54 104.7,49.7 107.2,54 			"/>
		</g>
		<g>
			<polygon fill="#F26F2A" points="102.2,66 104.7,70.3 107.2,66 			"/>
		</g>
	</g>
</g>
<g>
	<g>
		<line fill="none" stroke="#F26F2A" stroke-miterlimit="10" x1="104.5" y1="14" x2="104.5" y2="26"/>
		<g>
			<polygon fill="#F26F2A" points="102.2,14 104.7,9.7 107.2,14 			"/>
		</g>
		<g>
			<polygon fill="#F26F2A" points="102.2,26 104.7,30.3 107.2,26 			"/>
		</g>
	</g>
</g>
<g>
	<g>
		<line fill="none" stroke="#F26F2A" stroke-miterlimit="10" x1="104.5" y1="94" x2="104.5" y2="106"/>
		<g>
			<polygon fill="#F26F2A" points="102.2,94 104.7,89.7 107.2,94 			"/>
		</g>
		<g>
			<polygon fill="#F26F2A" points="102.2,106 104.7,110.3 107.2,106 			"/>
		</g>
	</g>
</g>
<rect x="255.1" y="40" fill="#5E778A" stroke="#FFFFFF" stroke-miterlimit="10" width="10" height="10"/>
<rect x="255.1" y="55.1" fill="#5E778A" stroke="#FFFFFF" stroke-miterlimit="10" width="10" height="10"/>
<rect x="255.1" y="70" fill="#5E778A" stroke="#FFFFFF" stroke-miterlimit="10" width="10" height="10"/>
<rect x="235.2" y="40" fill="#5E778A" stroke="#FFFFFF" stroke-miterlimit="10" width="10" height="10"/>
<rect x="235.2" y="55.1" fill="#5E778A" stroke="#FFFFFF" stroke-miterlimit="10" width="10" height="10"/>
<rect x="235.2" y="70" fill="#5E778A" stroke="#FFFFFF" stroke-miterlimit="10" width="10" height="10"/>
<g>
	<g>
		<line fill="none" stroke="#F26F2A" stroke-miterlimit="10" x1="251" y1="59.5" x2="249" y2="59.5"/>
		<g>
			<polygon fill="#F26F2A" points="251,57.4 255.3,59.9 251,62.4 			"/>
		</g>
		<g>
			<polygon fill="#F26F2A" points="249,57.4 244.7,59.9 249,62.4 			"/>
		</g>
	</g>
</g>
<g>
	<g>
		<line fill="none" stroke="#F26F2A" stroke-miterlimit="10" x1="271" y1="59.5" x2="269" y2="59.5"/>
		<g>
			<polygon fill="#F26F2A" points="271,57.4 275.3,59.9 271,62.4 			"/>
		</g>
		<g>
			<polygon fill="#F26F2A" points="269,57.4 264.7,59.9 269,62.4 			"/>
		</g>
	</g>
</g>
<g>
	<g>
		<line fill="none" stroke="#F26F2A" stroke-miterlimit="10" x1="231" y1="59.5" x2="229" y2="59.5"/>
		<g>
			<polygon fill="#F26F2A" points="231,57.4 235.3,59.9 231,62.4 			"/>
		</g>
		<g>
			<polygon fill="#F26F2A" points="229,57.4 224.7,59.9 229,62.4 			"/>
		</g>
	</g>
</g>
<rect x="5" y="10" fill="none" stroke="#BDBBBD" stroke-miterlimit="10" width="200" height="100"/>
<g opacity="0.5">
	<g>
		<line fill="none" stroke="#F26F2A" stroke-miterlimit="10" stroke-dasharray="2,2" x1="9" y1="60.5" x2="201" y2="60.5"/>
		<g>
			<polygon fill="#F26F2A" points="9,62.5 4.7,60 9,57.5 			"/>
		</g>
		<g>
			<polygon fill="#F26F2A" points="201,62.5 205.3,60 201,57.5 			"/>
		</g>
	</g>
</g>
<rect x="225.2" y="10.2" fill="none" stroke="#BDBBBD" stroke-miterlimit="10" width="49.8" height="99.8"/>
<g opacity="0.5">
	<g>
		<line fill="none" stroke="#F26F2A" stroke-miterlimit="10" stroke-dasharray="2,2" x1="249.5" y1="14" x2="249.5" y2="106"/>
		<g>
			<polygon fill="#F26F2A" points="247.5,14 250,9.7 252.5,14 			"/>
		</g>
		<g>
			<polygon fill="#F26F2A" points="247.5,106 250,110.3 252.5,106 			"/>
		</g>
	</g>
</g>
<g>
	<path fill="#4A4F51" d="M8.5,5.4c-0.1,0-0.3-0.1-0.4-0.1c-0.3,0-0.5,0.2-0.5,0.5v0.1h0.8v0.3H7.6v1.6H7.2V6.3H6.7V6h0.5V5.8
		C7.2,5.3,7.5,5,8,5c0.2,0,0.4,0,0.6,0.1L8.5,5.4z"/>
	<path fill="#4A4F51" d="M9,5.1h1v2.2c0,0.3,0.2,0.4,0.4,0.4c0.1,0,0.2,0,0.4-0.1l0.1,0.3c-0.2,0-0.4,0.1-0.6,0.1
		C9.9,8,9.6,7.7,9.6,7.2V5.4H9V5.1z"/>
	<path fill="#4A4F51" d="M12.4,5.9c0.6,0,0.9,0.4,0.9,0.9c0,0.1,0,0.2,0,0.2h-1.5c0,0.4,0.3,0.6,0.7,0.6c0.2,0,0.4-0.1,0.6-0.2
		l0.1,0.3C13,7.9,12.7,8,12.4,8c-0.6,0-1.1-0.4-1.1-1C11.4,6.3,11.8,5.9,12.4,5.9z M12.9,6.8c0-0.3-0.2-0.5-0.5-0.5
		s-0.5,0.2-0.6,0.5H12.9z"/>
	<path fill="#4A4F51" d="M14.4,6.9L13.7,6h0.4l0.3,0.4c0.1,0.1,0.1,0.2,0.2,0.3l0,0c0.1-0.1,0.1-0.2,0.2-0.3L15.1,6h0.4l-0.7,1
		l0.7,1h-0.4l-0.3-0.4c-0.1-0.1-0.2-0.2-0.2-0.4l0,0c-0.1,0.1-0.1,0.2-0.2,0.4L14.1,8h-0.4L14.4,6.9z"/>
	<path fill="#4A4F51" d="M16.2,6.4H18v0.3h-1.7L16.2,6.4L16.2,6.4z"/>
	<path fill="#4A4F51" d="M19.4,5.9c0.2,0,0.4,0.1,0.6,0.2V5.8V5.1h0.4v2.8H20V7.7l0,0C19.8,7.8,19.6,8,19.4,8c-0.5,0-0.8-0.4-0.8-1
		C18.5,6.3,18.9,5.9,19.4,5.9z M19.5,7.6c0.2,0,0.3-0.1,0.5-0.3V6.4c-0.2-0.1-0.3-0.2-0.5-0.2c-0.3,0-0.6,0.3-0.6,0.7
		C18.9,7.4,19.1,7.6,19.5,7.6z"/>
	<path fill="#4A4F51" d="M21,5.9h1.3v2h-0.4V6.3H21V5.9z M21.8,5.3c0-0.2,0.1-0.3,0.3-0.3s0.3,0.1,0.3,0.3c0,0.2-0.1,0.3-0.3,0.3
		S21.8,5.5,21.8,5.3z"/>
	<path fill="#4A4F51" d="M23.6,5.9H24v0.5l0,0c0.2-0.3,0.5-0.5,0.9-0.5c0.2,0,0.3,0,0.4,0.1l-0.1,0.3c-0.1,0-0.2-0.1-0.4-0.1
		c-0.3,0-0.6,0.1-0.8,0.5v1.1h-0.4V5.9z"/>
	<path fill="#4A4F51" d="M26.8,5.9c0.6,0,0.9,0.4,0.9,0.9c0,0.1,0,0.2,0,0.2h-1.5c0,0.4,0.3,0.6,0.7,0.6c0.2,0,0.4-0.1,0.6-0.2
		l0.1,0.3C27.4,7.9,27.1,8,26.8,8c-0.6,0-1.1-0.4-1.1-1C25.8,6.3,26.2,5.9,26.8,5.9z M27.3,6.8c0-0.3-0.2-0.5-0.5-0.5
		s-0.5,0.2-0.6,0.5H27.3z"/>
	<path fill="#4A4F51" d="M29.3,5.9c0.3,0,0.6,0.1,0.7,0.3l-0.2,0.3c-0.2-0.1-0.3-0.2-0.5-0.2c-0.4,0-0.7,0.3-0.7,0.7
		s0.3,0.7,0.7,0.7c0.2,0,0.4-0.1,0.6-0.2l0.2,0.3c-0.3,0-0.5,0.2-0.8,0.2c-0.6,0-1.1-0.4-1.1-1C28.2,6.3,28.7,5.9,29.3,5.9z"/>
	<path fill="#4A4F51" d="M31.1,6.3h-0.5V6h0.6l0.1-0.5h0.3V6h0.9v0.3h-0.9v0.9c0,0.3,0.1,0.5,0.5,0.5c0.2,0,0.3,0,0.5-0.1l0.1,0.3
		c-0.4,0-0.6,0.1-0.8,0.1c-0.6,0-0.8-0.3-0.8-0.8V6.3z"/>
	<path fill="#4A4F51" d="M33,5.9h1.3v2h-0.4V6.3H33V5.9z M33.8,5.3c0-0.2,0.1-0.3,0.3-0.3s0.3,0.1,0.3,0.3c0,0.2-0.1,0.3-0.3,0.3
		S33.8,5.5,33.8,5.3z"/>
	<path fill="#4A4F51" d="M36.3,5.9c0.5,0,1,0.4,1,1s-0.5,1-1,1s-1-0.4-1-1S35.8,5.9,36.3,5.9z M36.3,7.6c0.3,0,0.6-0.3,0.6-0.7
		s-0.2-0.7-0.6-0.7c-0.3,0-0.6,0.3-0.6,0.7S35.9,7.6,36.3,7.6z"/>
	<path fill="#4A4F51" d="M37.8,5.9h0.3v0.3l0,0c0.2-0.2,0.4-0.4,0.7-0.4c0.5,0,0.7,0.3,0.7,0.8v1.2h-0.4V6.7c0-0.3-0.1-0.5-0.4-0.5
		c-0.2,0-0.4,0.1-0.6,0.3v1.3h-0.4V5.9H37.8z"/>
	<path fill="#4A4F51" d="M41.1,5.8c0.2,0,0.4,0.2,0.4,0.4c0,0.2-0.2,0.4-0.4,0.4s-0.4-0.2-0.4-0.4C40.7,6,40.9,5.8,41.1,5.8z
		 M41.1,7.2c0.2,0,0.4,0.2,0.4,0.4c0,0.2-0.2,0.4-0.4,0.4s-0.4-0.2-0.4-0.4C40.7,7.4,40.9,7.2,41.1,7.2z"/>
	<path fill="#4A4F51" d="M45.2,5.9h0.5v0.4l0,0c0.2-0.3,0.5-0.5,0.8-0.5c0.2,0,0.3,0,0.4,0.1l-0.1,0.5c-0.1,0-0.2-0.1-0.4-0.1
		s-0.5,0.1-0.7,0.5v1h-0.6L45.2,5.9L45.2,5.9z"/>
	<path fill="#4A4F51" d="M48.3,5.9c0.5,0,1,0.4,1,1c0,0.7-0.5,1-1,1s-1-0.4-1-1S47.8,5.9,48.3,5.9z M48.3,7.5c0.3,0,0.4-0.2,0.4-0.6
		s-0.1-0.6-0.4-0.6s-0.4,0.2-0.4,0.6S48,7.5,48.3,7.5z"/>
	<path fill="#4A4F51" d="M49.5,5.9h0.6l0.1,0.9c0,0.2,0,0.4,0.1,0.6l0,0c0-0.2,0.1-0.4,0.1-0.6l0.1-0.7h0.4L51,6.8
		c0,0.2,0.1,0.4,0.1,0.6l0,0c0-0.2,0-0.4,0.1-0.6l0.1-0.9h0.5l-0.3,2h-0.7l-0.1-0.7c0-0.2-0.1-0.4-0.1-0.6l0,0c0,0.1,0,0.3-0.1,0.6
		l-0.1,0.7h-0.7L49.5,5.9z"/>
</g>
<g>
	<path fill="#4A4F51" d="M228,6.3c-0.1,0-0.2-0.1-0.3-0.1c-0.2,0-0.3,0.1-0.3,0.4v0.1h0.6V7h-0.6v1.2H227V7h-0.4V6.7h0.4V6.6
		c0-0.4,0.2-0.6,0.6-0.6c0.2,0,0.3,0,0.4,0.1V6.3z"/>
	<path fill="#4A4F51" d="M228.3,6.1h0.8v1.6c0,0.2,0.1,0.3,0.3,0.3c0.1,0,0.2,0,0.3-0.1l0.1,0.2c-0.1,0-0.2,0.1-0.4,0.1
		c-0.3,0-0.5-0.2-0.5-0.6V6.3h-0.5V6.1H228.3z"/>
	<path fill="#4A4F51" d="M230.8,6.7c0.4,0,0.7,0.3,0.7,0.7c0,0.1,0,0.1,0,0.2h-1.1c0,0.3,0.2,0.5,0.5,0.5c0.2,0,0.3,0,0.4-0.1
		l0.1,0.2c-0.2,0.1-0.3,0.2-0.6,0.2c-0.4,0-0.8-0.3-0.8-0.8C230.1,7,230.5,6.7,230.8,6.7z M231.2,7.3c0-0.3-0.1-0.4-0.4-0.4
		c-0.2,0-0.4,0.1-0.5,0.4H231.2z"/>
	<path fill="#4A4F51" d="M232.4,7.4l-0.5-0.7h0.3l0.2,0.3c0.1,0.1,0.1,0.2,0.2,0.2l0,0c0.1-0.1,0.1-0.2,0.2-0.3l0.2-0.3h0.3
		l-0.5,0.7l0.5,0.7H233l-0.2-0.3c-0.1-0.1-0.1-0.2-0.2-0.3l0,0c-0.1,0.1-0.1,0.2-0.2,0.3L232.2,8h-0.3L232.4,7.4z"/>
	<path fill="#4A4F51" d="M233.7,7.1h1.3v0.2h-1.3V7.1z"/>
	<path fill="#4A4F51" d="M236.1,6.7c0.2,0,0.3,0.1,0.4,0.2V6.6V6.1h0.3v2.1h-0.2V8l0,0c-0.1,0.1-0.3,0.2-0.5,0.2
		c-0.4,0-0.6-0.3-0.6-0.8C235.5,7,235.8,6.7,236.1,6.7z M236.2,8c0.1,0,0.3-0.1,0.4-0.2V7.1c-0.1-0.1-0.2-0.2-0.3-0.2
		c-0.2,0-0.4,0.2-0.4,0.5C235.8,7.8,235.9,8,236.2,8z"/>
	<path fill="#4A4F51" d="M237.4,6.7h1v1.5H238V7h-0.7L237.4,6.7L237.4,6.7z M237.9,6.2c0-0.1,0.1-0.2,0.2-0.2c0.1,0,0.2,0.1,0.2,0.2
		s-0.1,0.2-0.2,0.2C238,6.4,237.9,6.4,237.9,6.2z"/>
	<path fill="#4A4F51" d="M239.3,6.7h0.2V7l0,0c0.2-0.2,0.4-0.4,0.6-0.4c0.1,0,0.2,0,0.3,0.1l0.1,0.3c-0.1,0-0.2,0-0.3,0
		c-0.2,0-0.4,0.1-0.6,0.4v0.8h-0.3L239.3,6.7L239.3,6.7z"/>
	<path fill="#4A4F51" d="M241.6,6.7c0.4,0,0.7,0.3,0.7,0.7c0,0.1,0,0.1,0,0.2h-1.1c0,0.3,0.2,0.5,0.5,0.5c0.2,0,0.3,0,0.4-0.1
		l0.1,0.2c-0.2,0.1-0.3,0.2-0.6,0.2c-0.4,0-0.8-0.3-0.8-0.8C240.9,7,241.3,6.7,241.6,6.7z M242,7.3c0-0.3-0.1-0.4-0.4-0.4
		c-0.2,0-0.4,0.1-0.5,0.4H242z"/>
	<path fill="#4A4F51" d="M243.6,6.7c0.2,0,0.4,0.1,0.5,0.2L244,7.1c-0.1-0.1-0.2-0.2-0.4-0.2c-0.3,0-0.5,0.2-0.5,0.5
		s0.2,0.5,0.5,0.5c0.2,0,0.3-0.1,0.4-0.2l0.1,0.2c-0.2,0.1-0.4,0.2-0.6,0.2c-0.5,0-0.8-0.3-0.8-0.8C242.7,7,243.1,6.7,243.6,6.7z"/>
	<path fill="#4A4F51" d="M244.9,7h-0.4V6.7h0.4V6.3h0.2v0.4h0.7V7h-0.7v0.6c0,0.3,0.1,0.4,0.4,0.4c0.1,0,0.2,0,0.3-0.1l0.1,0.2
		c-0.1,0-0.3,0.1-0.5,0.1c-0.4,0-0.6-0.2-0.6-0.6V7H244.9z"/>
	<path fill="#4A4F51" d="M246.4,6.7h1v1.5H247V7h-0.7L246.4,6.7L246.4,6.7z M246.9,6.2c0-0.1,0.1-0.2,0.2-0.2c0.1,0,0.2,0.1,0.2,0.2
		s-0.1,0.2-0.2,0.2C247,6.4,246.9,6.4,246.9,6.2z"/>
	<path fill="#4A4F51" d="M248.8,6.7c0.4,0,0.7,0.3,0.7,0.8s-0.3,0.8-0.7,0.8s-0.7-0.3-0.7-0.8S248.4,6.7,248.8,6.7z M248.8,8
		c0.3,0,0.4-0.2,0.4-0.5S249,7,248.8,7c-0.3,0-0.4,0.2-0.4,0.5C248.4,7.8,248.5,8,248.8,8z"/>
	<path fill="#4A4F51" d="M250,6.7h0.2v0.2l0,0c0.1-0.2,0.3-0.3,0.5-0.3c0.3,0,0.5,0.2,0.5,0.6v0.9H251V7.3c0-0.3-0.1-0.4-0.3-0.4
		s-0.3,0.1-0.4,0.2v1H250V6.7z"/>
	<path fill="#4A4F51" d="M252.4,6.6c0.2,0,0.3,0.1,0.3,0.3c0,0.2-0.1,0.3-0.3,0.3s-0.3-0.1-0.3-0.3C252.1,6.7,252.2,6.6,252.4,6.6z
		 M252.4,7.7c0.2,0,0.3,0.1,0.3,0.3c0,0.2-0.1,0.3-0.3,0.3s-0.3-0.1-0.3-0.3S252.2,7.7,252.4,7.7z"/>
	<path fill="#4A4F51" d="M256.2,6.7c0.2,0,0.4,0.1,0.6,0.2l-0.2,0.3c-0.1-0.1-0.2-0.1-0.3-0.1c-0.3,0-0.4,0.2-0.4,0.4
		c0,0.3,0.2,0.4,0.4,0.4c0.2,0,0.3-0.1,0.4-0.1l0.2,0.3c-0.2,0.2-0.4,0.2-0.6,0.2c-0.5,0-0.8-0.3-0.8-0.8S255.7,6.7,256.2,6.7z"/>
	<path fill="#4A4F51" d="M257.8,6.7c0.4,0,0.8,0.3,0.8,0.8s-0.4,0.8-0.8,0.8S257,8,257,7.5S257.4,6.7,257.8,6.7z M257.8,7.9
		c0.2,0,0.3-0.2,0.3-0.4c0-0.3-0.1-0.4-0.3-0.4c-0.2,0-0.3,0.2-0.3,0.4C257.5,7.7,257.6,7.9,257.8,7.9z"/>
	<path fill="#4A4F51" d="M258.9,6.1h0.9v1.5c0,0.2,0.1,0.2,0.2,0.2s0.1,0,0.2,0l0.1,0.3c-0.2,0-0.3,0.1-0.4,0.1
		c-0.4,0-0.6-0.2-0.6-0.6V6.4h-0.4L258.9,6.1L258.9,6.1z"/>
	<path fill="#4A4F51" d="M262.1,8.2h-0.4V8l0,0c-0.1,0.2-0.3,0.2-0.5,0.2c-0.3,0-0.5-0.2-0.5-0.6V6.7h0.4v0.9c0,0.2,0.1,0.3,0.2,0.3
		s0.2,0,0.3-0.2v-1h0.4v1.5H262.1z"/>
	<path fill="#4A4F51" d="M262.4,6.7h0.3v0.2l0,0c0.1-0.1,0.1-0.2,0.3-0.2c0.1,0,0.2,0.1,0.3,0.2c0.1-0.1,0.2-0.2,0.4-0.2
		c0.2,0,0.4,0.2,0.4,0.5v1h-0.5v-1c0-0.1,0-0.1-0.1-0.1s-0.1,0-0.2,0.1v1H263v-1c0-0.1,0-0.1-0.1-0.1s-0.1,0-0.1,0.1v1h-0.4V6.7z"/>
	<path fill="#4A4F51" d="M264.3,6.7h0.4v0.2l0,0c0.1-0.1,0.3-0.2,0.5-0.2c0.3,0,0.5,0.2,0.5,0.6v0.9h-0.4V7.3c0-0.2-0.1-0.3-0.2-0.3
		s-0.2,0.1-0.3,0.2v1h-0.4V6.7H264.3z"/>
</g>
</svg>
