<?xml version="1.0" encoding="utf-8"?>
<!-- Generator: Adobe Illustrator 19.0.1, SVG Export Plug-In . SVG Version: 6.00 Build 0)  -->
<svg version="1.1" id="Layer_1" xmlns="http://www.w3.org/2000/svg" xmlns:xlink="http://www.w3.org/1999/xlink" x="0px" y="0px"
	 viewBox="0 0 280 115" enable-background="new 0 0 280 115" xml:space="preserve">
<rect x="5" y="9.8" fill="none" stroke="#BDBBBD" stroke-miterlimit="10" width="270" height="100"/>
<g>
	<g>
		<line fill="none" stroke="#F26F2A" stroke-miterlimit="10" x1="14.3" y1="60.3" x2="266.5" y2="60.3"/>
		<g>
			<polygon fill="#F26F2A" points="17.1,64.8 5.4,59.8 17.1,54.8 			"/>
		</g>
		<g>
			<polygon fill="#F26F2A" points="263.7,64.8 275.4,59.8 263.7,54.8 			"/>
		</g>
	</g>
</g>
<g opacity="0.5">
	<g>
		<line fill="none" stroke="#F26F2A" stroke-miterlimit="10" x1="139.5" y1="13.8" x2="139.5" y2="14.8"/>
		<line fill="none" stroke="#F26F2A" stroke-miterlimit="10" stroke-dasharray="2,2" x1="139.5" y1="16.8" x2="139.5" y2="103.8"/>
		<line fill="none" stroke="#F26F2A" stroke-miterlimit="10" x1="139.5" y1="104.8" x2="139.5" y2="105.8"/>
		<g>
			<polygon fill="#F26F2A" points="137.5,13.8 140,9.5 142.5,13.8 			"/>
		</g>
		<g>
			<polygon fill="#F26F2A" points="137.5,105.8 140,110.1 142.5,105.8 			"/>
		</g>
	</g>
</g>
<g>
	<rect x="35.3" y="11.3" fill="#5E778A" stroke="#FFFFFF" stroke-miterlimit="10" width="24.2" height="97"/>
	<rect x="64.4" y="11.3" fill="#5E778A" stroke="#FFFFFF" stroke-miterlimit="10" width="24.2" height="97"/>
	<rect x="6.3" y="11.3" fill="#5E778A" stroke="#FFFFFF" stroke-miterlimit="10" width="24.2" height="97"/>
</g>
<g>
	<path fill="#4A4F51" d="M8.5,5.2c-0.1,0-0.3-0.1-0.4-0.1c-0.3,0-0.5,0.2-0.5,0.5v0.1h0.8V6H7.6v1.6H7.2V6.1H6.7V5.8h0.5V5.6
		c0-0.5,0.3-0.8,0.8-0.8c0.2,0,0.4,0,0.6,0.1L8.5,5.2z"/>
	<path fill="#4A4F51" d="M9,4.9h1v2.2c0,0.3,0.2,0.4,0.4,0.4c0.1,0,0.2,0,0.4-0.1l0.1,0.3c-0.2,0-0.4,0.1-0.6,0.1
		C9.9,7.8,9.6,7.5,9.6,7V5.2H9V4.9z"/>
	<path fill="#4A4F51" d="M12.4,5.7c0.6,0,0.9,0.4,0.9,0.9c0,0.1,0,0.2,0,0.2h-1.5c0,0.4,0.3,0.6,0.7,0.6c0.2,0,0.4-0.1,0.6-0.2
		l0.1,0.3c-0.2,0.2-0.5,0.3-0.8,0.3c-0.6,0-1.1-0.4-1.1-1C11.4,6.1,11.8,5.7,12.4,5.7z M12.9,6.6c0-0.3-0.2-0.5-0.5-0.5
		s-0.5,0.2-0.6,0.5H12.9z"/>
	<path fill="#4A4F51" d="M14.4,6.7l-0.7-0.9h0.4l0.3,0.4c0.1,0.1,0.1,0.2,0.2,0.3l0,0c0.1-0.1,0.1-0.2,0.2-0.3l0.3-0.4h0.4l-0.7,1
		l0.7,1h-0.4l-0.3-0.4c-0.1-0.1-0.2-0.2-0.2-0.4l0,0c-0.1,0.1-0.1,0.2-0.2,0.4l-0.3,0.4h-0.4L14.4,6.7z"/>
	<path fill="#4A4F51" d="M16.2,6.2H18v0.3h-1.7L16.2,6.2L16.2,6.2z"/>
	<path fill="#4A4F51" d="M19.4,5.7c0.2,0,0.4,0.1,0.6,0.2V5.6V4.9h0.4v2.8H20V7.5l0,0c-0.2,0.1-0.4,0.3-0.6,0.3
		c-0.5,0-0.8-0.4-0.8-1C18.5,6.1,18.9,5.7,19.4,5.7z M19.5,7.4c0.2,0,0.3-0.1,0.5-0.3V6.2C19.8,6.1,19.7,6,19.5,6
		c-0.3,0-0.6,0.3-0.6,0.7C18.9,7.2,19.1,7.4,19.5,7.4z"/>
	<path fill="#4A4F51" d="M21,5.7h1.3v2h-0.4V6.1H21V5.7z M21.8,5.1c0-0.2,0.1-0.3,0.3-0.3c0.2,0,0.3,0.1,0.3,0.3
		c0,0.2-0.1,0.3-0.3,0.3C21.9,5.4,21.8,5.3,21.8,5.1z"/>
	<path fill="#4A4F51" d="M23.6,5.7H24v0.5l0,0c0.2-0.3,0.5-0.5,0.9-0.5c0.2,0,0.3,0,0.4,0.1l-0.1,0.3C25.1,6.1,25,6,24.8,6
		c-0.3,0-0.6,0.1-0.8,0.5v1.1h-0.4V5.7z"/>
	<path fill="#4A4F51" d="M26.8,5.7c0.6,0,0.9,0.4,0.9,0.9c0,0.1,0,0.2,0,0.2h-1.5c0,0.4,0.3,0.6,0.7,0.6c0.2,0,0.4-0.1,0.6-0.2
		l0.1,0.3c-0.2,0.2-0.5,0.3-0.8,0.3c-0.6,0-1.1-0.4-1.1-1C25.8,6.1,26.2,5.7,26.8,5.7z M27.3,6.6c0-0.3-0.2-0.5-0.5-0.5
		c-0.3,0-0.5,0.2-0.6,0.5H27.3z"/>
	<path fill="#4A4F51" d="M29.3,5.7c0.3,0,0.6,0.1,0.7,0.3l-0.2,0.3c-0.2-0.1-0.3-0.2-0.5-0.2c-0.4,0-0.7,0.3-0.7,0.7
		c0,0.4,0.3,0.7,0.7,0.7c0.2,0,0.4-0.1,0.6-0.2l0.2,0.3c-0.3,0-0.5,0.2-0.8,0.2c-0.6,0-1.1-0.4-1.1-1C28.2,6.1,28.7,5.7,29.3,5.7z"
		/>
	<path fill="#4A4F51" d="M31.1,6.1h-0.5V5.8h0.6l0.1-0.5h0.3v0.5h0.9v0.3h-0.9V7c0,0.3,0.1,0.5,0.5,0.5c0.2,0,0.3,0,0.5-0.1l0.1,0.3
		c-0.4,0-0.6,0.1-0.8,0.1c-0.6,0-0.8-0.3-0.8-0.8V6.1z"/>
	<path fill="#4A4F51" d="M33,5.7h1.3v2h-0.4V6.1H33V5.7z M33.8,5.1c0-0.2,0.1-0.3,0.3-0.3c0.2,0,0.3,0.1,0.3,0.3
		c0,0.2-0.1,0.3-0.3,0.3C33.9,5.4,33.8,5.3,33.8,5.1z"/>
	<path fill="#4A4F51" d="M36.3,5.7c0.5,0,1,0.4,1,1s-0.5,1-1,1c-0.5,0-1-0.4-1-1S35.8,5.7,36.3,5.7z M36.3,7.4
		c0.3,0,0.6-0.3,0.6-0.7c0-0.4-0.2-0.7-0.6-0.7c-0.3,0-0.6,0.3-0.6,0.7C35.7,7.1,35.9,7.4,36.3,7.4z"/>
	<path fill="#4A4F51" d="M37.8,5.7h0.3V6l0,0c0.2-0.2,0.4-0.4,0.7-0.4c0.5,0,0.7,0.3,0.7,0.8v1.2h-0.4V6.5C39.1,6.2,39,6,38.7,6
		c-0.2,0-0.4,0.1-0.6,0.3v1.3h-0.4L37.8,5.7L37.8,5.7z"/>
	<path fill="#4A4F51" d="M41.1,5.6c0.2,0,0.4,0.2,0.4,0.4c0,0.2-0.2,0.4-0.4,0.4S40.7,6.2,40.7,6C40.7,5.8,40.9,5.6,41.1,5.6z
		 M41.1,7c0.2,0,0.4,0.2,0.4,0.4s-0.2,0.4-0.4,0.4s-0.4-0.2-0.4-0.4S40.9,7,41.1,7z"/>
	<path fill="#4A4F51" d="M45.2,5.7h0.5v0.4l0,0c0.2-0.3,0.5-0.5,0.8-0.5c0.2,0,0.3,0,0.4,0.1l-0.1,0.5c-0.1,0-0.2-0.1-0.4-0.1
		s-0.5,0.1-0.7,0.5v1h-0.6L45.2,5.7L45.2,5.7z"/>
	<path fill="#4A4F51" d="M48.3,5.7c0.5,0,1,0.4,1,1c0,0.7-0.5,1-1,1c-0.5,0-1-0.4-1-1S47.8,5.7,48.3,5.7z M48.3,7.3
		c0.3,0,0.4-0.2,0.4-0.6c0-0.3-0.1-0.6-0.4-0.6c-0.3,0-0.4,0.2-0.4,0.6C47.9,7.1,48,7.3,48.3,7.3z"/>
	<path fill="#4A4F51" d="M49.5,5.7H50l0.1,0.9c0,0.2,0,0.4,0.1,0.6l0,0c0-0.2,0.1-0.4,0.1-0.6l0.1-0.7h0.4l0.1,0.7
		C50.9,6.8,51,7,51,7.2l0,0c0-0.2,0-0.4,0.1-0.6l0.1-0.9h0.5l-0.3,2h-0.7L50.6,7c0-0.2-0.1-0.4-0.1-0.6l0,0c0,0.1,0,0.3-0.1,0.6
		l-0.1,0.7h-0.7L49.5,5.7z"/>
</g>
<g>
	<path d="M158.6,54.9h0.4l0.3,1.1l0.1,0.4h0l0.1-0.4l0.3-1.1h0.4v2.6h-0.3v-1.3c0-0.2,0-0.7,0-0.9h0l-0.2,0.6l-0.3,0.9h-0.2
		l-0.3-0.9l-0.2-0.6h0c0,0.2,0.1,0.7,0.1,0.9v1.3h-0.3V54.9z"/>
	<path d="M162.4,56.2c0-0.2-0.1-0.4-0.5-0.4c-0.2,0-0.5,0.1-0.7,0.2l-0.1-0.3c0.2-0.1,0.5-0.3,0.9-0.3c0.5,0,0.8,0.3,0.8,0.8v1.2
		h-0.3l0-0.3h0c-0.2,0.2-0.5,0.3-0.7,0.3c-0.4,0-0.7-0.2-0.7-0.6C161,56.5,161.4,56.3,162.4,56.2z M161.8,57.2
		c0.2,0,0.4-0.1,0.6-0.3v-0.5c-0.8,0.1-1,0.2-1,0.4C161.4,57.1,161.6,57.2,161.8,57.2z"/>
	<path d="M163.5,55.5h1.3v2h-0.4v-1.6h-0.9V55.5z M164.2,54.9c0-0.2,0.1-0.3,0.3-0.3s0.3,0.1,0.3,0.3c0,0.2-0.1,0.3-0.3,0.3
		S164.2,55,164.2,54.9z"/>
	<path d="M165.9,55.5h0.3l0,0.3h0c0.2-0.2,0.4-0.4,0.7-0.4c0.5,0,0.7,0.3,0.7,0.8v1.2h-0.4v-1.2c0-0.3-0.1-0.5-0.4-0.5
		c-0.2,0-0.4,0.1-0.6,0.3v1.3h-0.4V55.5z"/>
	<path d="M172,56.7h-0.9l-0.2,0.8h-0.4l0.9-2.6h0.5l0.9,2.6h-0.4L172,56.7z M171.9,56.4l-0.1-0.4c-0.1-0.3-0.2-0.6-0.2-0.9h0
		c-0.1,0.3-0.2,0.6-0.2,0.9l-0.1,0.4H171.9z"/>
	<path d="M173.7,56.5l-0.7-0.9h0.4l0.3,0.4c0.1,0.1,0.1,0.2,0.2,0.3h0c0.1-0.1,0.1-0.2,0.2-0.3l0.3-0.4h0.4l-0.7,1l0.7,1h-0.4
		l-0.3-0.4c-0.1-0.1-0.2-0.2-0.2-0.4h0c-0.1,0.1-0.1,0.2-0.2,0.4l-0.3,0.4H173L173.7,56.5z"/>
	<path d="M175.5,55.5h1.3v2h-0.4v-1.6h-0.9V55.5z M176.2,54.9c0-0.2,0.1-0.3,0.3-0.3s0.3,0.1,0.3,0.3c0,0.2-0.1,0.3-0.3,0.3
		S176.2,55,176.2,54.9z"/>
	<path d="M178,57c0.2,0.2,0.5,0.3,0.8,0.3c0.3,0,0.5-0.1,0.5-0.3c0-0.1-0.2-0.2-0.6-0.4c-0.4-0.1-0.7-0.3-0.7-0.6
		c0-0.3,0.3-0.6,0.8-0.6c0.3,0,0.6,0.1,0.8,0.3l-0.2,0.2c-0.2-0.1-0.4-0.2-0.6-0.2c-0.3,0-0.4,0.1-0.4,0.2c0,0.1,0.2,0.2,0.6,0.3
		c0.5,0.1,0.8,0.3,0.8,0.6c0,0.3-0.3,0.6-0.9,0.6c-0.4,0-0.7-0.1-1-0.3L178,57z"/>
</g>
<g>
	<path d="M133.4,47.2c0-0.3,0.2-0.6,0.3-0.7l0.3,0.2c-0.1,0.1-0.2,0.3-0.2,0.5c0,0.5,0.4,0.8,1,0.8c0.6,0,1-0.3,1-0.8
		c0-0.2-0.1-0.4-0.3-0.6l0.2-0.2c0.2,0.2,0.4,0.5,0.4,0.8c0,0.7-0.5,1.2-1.4,1.2C134,48.4,133.4,47.9,133.4,47.2z"/>
	<path d="M134.2,45.7v-0.3l0.5,0v0c-0.3-0.2-0.5-0.5-0.5-0.9c0-0.2,0-0.3,0.1-0.4l0.3,0.1c0,0.1-0.1,0.2-0.1,0.4
		c0,0.3,0.1,0.6,0.5,0.8h1.1v0.4H134.2z"/>
	<path d="M134.1,42.7c0-0.5,0.4-1,1-1c0.6,0,1,0.5,1,1s-0.4,1-1,1C134.5,43.6,134.1,43.2,134.1,42.7z M135.8,42.7
		c0-0.3-0.3-0.6-0.7-0.6s-0.7,0.2-0.7,0.6c0,0.3,0.3,0.6,0.7,0.6S135.8,43,135.8,42.7z"/>
	<path d="M135.6,41c0.2-0.2,0.3-0.5,0.3-0.8c0-0.3-0.1-0.5-0.3-0.5c-0.1,0-0.2,0.2-0.4,0.6c-0.1,0.4-0.3,0.7-0.6,0.7
		c-0.3,0-0.6-0.3-0.6-0.8c0-0.3,0.1-0.6,0.3-0.8l0.2,0.2c-0.1,0.2-0.2,0.4-0.2,0.6c0,0.3,0.1,0.4,0.2,0.4c0.1,0,0.2-0.2,0.3-0.6
		c0.1-0.5,0.3-0.8,0.6-0.8c0.3,0,0.6,0.3,0.6,0.9c0,0.4-0.1,0.7-0.3,1L135.6,41z"/>
	<path d="M135.6,38.6c0.2-0.2,0.3-0.5,0.3-0.8c0-0.3-0.1-0.5-0.3-0.5c-0.1,0-0.2,0.2-0.4,0.6c-0.1,0.4-0.3,0.7-0.6,0.7
		c-0.3,0-0.6-0.3-0.6-0.8c0-0.3,0.1-0.6,0.3-0.8l0.2,0.2c-0.1,0.2-0.2,0.4-0.2,0.6c0,0.3,0.1,0.4,0.2,0.4c0.1,0,0.2-0.2,0.3-0.6
		c0.1-0.5,0.3-0.8,0.6-0.8c0.3,0,0.6,0.3,0.6,0.9c0,0.4-0.1,0.7-0.3,1L135.6,38.6z"/>
	<path d="M135.4,32.6v0.9l0.8,0.2v0.4l-2.6-0.9v-0.5l2.6-0.9v0.4L135.4,32.6z M135,32.7l-0.4,0.1c-0.3,0.1-0.6,0.2-0.9,0.2v0
		c0.3,0.1,0.6,0.2,0.9,0.2l0.4,0.1V32.7z"/>
	<path d="M135.1,30.9l-0.9,0.7v-0.4l0.4-0.3c0.1-0.1,0.2-0.1,0.3-0.2v0c-0.1-0.1-0.2-0.1-0.3-0.2l-0.4-0.3v-0.4l1,0.7l1-0.7v0.4
		l-0.4,0.3c-0.1,0.1-0.2,0.2-0.4,0.2v0c0.1,0.1,0.2,0.1,0.4,0.2l0.4,0.3v0.4L135.1,30.9z"/>
	<path d="M134.2,29.1v-1.3h2v0.4h-1.6v0.9H134.2z M133.5,28.4c-0.2,0-0.3-0.1-0.3-0.3s0.1-0.3,0.3-0.3c0.2,0,0.3,0.1,0.3,0.3
		S133.7,28.4,133.5,28.4z"/>
	<path d="M135.6,26.6c0.2-0.2,0.3-0.5,0.3-0.8c0-0.3-0.1-0.5-0.3-0.5c-0.1,0-0.2,0.2-0.4,0.6c-0.1,0.4-0.3,0.7-0.6,0.7
		c-0.3,0-0.6-0.3-0.6-0.8c0-0.3,0.1-0.6,0.3-0.8l0.2,0.2c-0.1,0.2-0.2,0.4-0.2,0.6c0,0.3,0.1,0.4,0.2,0.4c0.1,0,0.2-0.2,0.3-0.6
		c0.1-0.5,0.3-0.8,0.6-0.8c0.3,0,0.6,0.3,0.6,0.9c0,0.4-0.1,0.7-0.3,1L135.6,26.6z"/>
</g>
</svg>
